<svg width="44" height="40" viewBox="0 0 44 40" fill="none" xmlns="http://www.w3.org/2000/svg">
<path d="M21.9998 39.24C21.7052 39.2391 21.4192 39.1406 21.1865 38.96C13.7732 33.2 8.66649 28.24 5.09316 23.3467C0.533156 17.0934 -0.506844 11.32 1.99982 6.18668C3.78649 2.52001 8.91982 -0.479988 14.9198 1.26668C17.7805 2.093 20.2765 3.86506 21.9998 6.29335C23.7232 3.86506 26.2191 2.093 29.0798 1.26668C35.0665 -0.453321 40.2132 2.52001 41.9998 6.18668C44.5065 11.32 43.4665 17.0934 38.9065 23.3467C35.3332 28.24 30.2265 33.2 22.8132 38.96C22.5804 39.1406 22.2944 39.2391 21.9998 39.24Z" fill="#FF3B30"/>
</svg>
